<mxfile host="app.diagrams.net" agent="Mozilla/5.0 (Windows NT 10.0; Win64; x64) AppleWebKit/537.36 (KHTML, like Gecko) Chrome/131.0.0.0 Safari/537.36 Edg/131.0.0.0" version="25.0.1">
  <diagram name="第 1 页" id="CPCK61G9Xob5o3EQFY90">
    <mxGraphModel dx="1554" dy="819" grid="1" gridSize="10" guides="1" tooltips="1" connect="1" arrows="1" fold="1" page="1" pageScale="1" pageWidth="827" pageHeight="1169" background="#FFFFFF" math="0" shadow="0">
      <root>
        <mxCell id="0" />
        <mxCell id="1" parent="0" />
        <mxCell id="ehPL8AU6kjmEIXc9tZ0f-1" value="&lt;font color=&quot;#ffffff&quot;&gt;&lt;b&gt;收集广泛运行数据&lt;/b&gt;&lt;/font&gt;" style="rounded=0;whiteSpace=wrap;html=1;fillColor=#0070c0;" vertex="1" parent="1">
          <mxGeometry x="160" y="160" width="120" height="60" as="geometry" />
        </mxCell>
        <mxCell id="ehPL8AU6kjmEIXc9tZ0f-2" value="数据采集与预处理" style="rounded=0;whiteSpace=wrap;html=1;" vertex="1" parent="1">
          <mxGeometry x="160" y="260" width="120" height="60" as="geometry" />
        </mxCell>
        <mxCell id="ehPL8AU6kjmEIXc9tZ0f-3" value="数据预处理" style="rounded=0;whiteSpace=wrap;html=1;" vertex="1" parent="1">
          <mxGeometry x="160" y="360" width="120" height="60" as="geometry" />
        </mxCell>
        <mxCell id="ehPL8AU6kjmEIXc9tZ0f-4" value="特征工程" style="rounded=0;whiteSpace=wrap;html=1;" vertex="1" parent="1">
          <mxGeometry x="160" y="460" width="120" height="60" as="geometry" />
        </mxCell>
        <mxCell id="ehPL8AU6kjmEIXc9tZ0f-5" value="分析电网运行指标与店里大模型中间层特征关联" style="rounded=0;whiteSpace=wrap;html=1;" vertex="1" parent="1">
          <mxGeometry x="320" y="460" width="120" height="60" as="geometry" />
        </mxCell>
        <mxCell id="ehPL8AU6kjmEIXc9tZ0f-6" value="建立量化关联模型" style="rounded=0;whiteSpace=wrap;html=1;" vertex="1" parent="1">
          <mxGeometry x="320" y="360" width="120" height="60" as="geometry" />
        </mxCell>
        <mxCell id="ehPL8AU6kjmEIXc9tZ0f-7" value="精准剪枝策略设计" style="rounded=0;whiteSpace=wrap;html=1;" vertex="1" parent="1">
          <mxGeometry x="320" y="260" width="120" height="60" as="geometry" />
        </mxCell>
        <mxCell id="ehPL8AU6kjmEIXc9tZ0f-8" value="对模型各层次和结构进行评估" style="rounded=0;whiteSpace=wrap;html=1;" vertex="1" parent="1">
          <mxGeometry x="320" y="160" width="120" height="60" as="geometry" />
        </mxCell>
        <mxCell id="ehPL8AU6kjmEIXc9tZ0f-9" value="评估与验证" style="rounded=0;whiteSpace=wrap;html=1;" vertex="1" parent="1">
          <mxGeometry x="480" y="460" width="120" height="60" as="geometry" />
        </mxCell>
        <mxCell id="ehPL8AU6kjmEIXc9tZ0f-10" value="剪枝模型微调" style="rounded=0;whiteSpace=wrap;html=1;" vertex="1" parent="1">
          <mxGeometry x="480" y="360" width="120" height="60" as="geometry" />
        </mxCell>
        <mxCell id="ehPL8AU6kjmEIXc9tZ0f-11" value="根据电网运行指标重要性动态调整剪枝操作" style="rounded=0;whiteSpace=wrap;html=1;" vertex="1" parent="1">
          <mxGeometry x="480" y="260" width="120" height="60" as="geometry" />
        </mxCell>
        <mxCell id="ehPL8AU6kjmEIXc9tZ0f-12" value="通过权重和梯度评估识别可剪除部分" style="rounded=0;whiteSpace=wrap;html=1;" vertex="1" parent="1">
          <mxGeometry x="480" y="160" width="120" height="60" as="geometry" />
        </mxCell>
        <mxCell id="ehPL8AU6kjmEIXc9tZ0f-13" value="" style="shape=flexArrow;endArrow=classic;html=1;rounded=0;exitX=0.5;exitY=1;exitDx=0;exitDy=0;entryX=0.5;entryY=0;entryDx=0;entryDy=0;" edge="1" parent="1" source="ehPL8AU6kjmEIXc9tZ0f-1" target="ehPL8AU6kjmEIXc9tZ0f-2">
          <mxGeometry width="50" height="50" relative="1" as="geometry">
            <mxPoint x="50" y="220" as="sourcePoint" />
            <mxPoint x="220" y="250" as="targetPoint" />
          </mxGeometry>
        </mxCell>
        <mxCell id="ehPL8AU6kjmEIXc9tZ0f-14" value="" style="shape=flexArrow;endArrow=classic;html=1;rounded=0;exitX=0.5;exitY=1;exitDx=0;exitDy=0;entryX=0.5;entryY=0;entryDx=0;entryDy=0;" edge="1" parent="1">
          <mxGeometry width="50" height="50" relative="1" as="geometry">
            <mxPoint x="219.5" y="320" as="sourcePoint" />
            <mxPoint x="219.5" y="360" as="targetPoint" />
          </mxGeometry>
        </mxCell>
        <mxCell id="ehPL8AU6kjmEIXc9tZ0f-15" value="" style="shape=flexArrow;endArrow=classic;html=1;rounded=0;exitX=0.5;exitY=1;exitDx=0;exitDy=0;entryX=0.5;entryY=0;entryDx=0;entryDy=0;" edge="1" parent="1">
          <mxGeometry width="50" height="50" relative="1" as="geometry">
            <mxPoint x="219.5" y="420" as="sourcePoint" />
            <mxPoint x="219.5" y="460" as="targetPoint" />
          </mxGeometry>
        </mxCell>
        <mxCell id="ehPL8AU6kjmEIXc9tZ0f-16" value="" style="shape=flexArrow;endArrow=classic;html=1;rounded=0;exitX=0.5;exitY=1;exitDx=0;exitDy=0;entryX=0.5;entryY=0;entryDx=0;entryDy=0;" edge="1" parent="1">
          <mxGeometry width="50" height="50" relative="1" as="geometry">
            <mxPoint x="539.5" y="220" as="sourcePoint" />
            <mxPoint x="539.5" y="260" as="targetPoint" />
          </mxGeometry>
        </mxCell>
        <mxCell id="ehPL8AU6kjmEIXc9tZ0f-17" value="" style="shape=flexArrow;endArrow=classic;html=1;rounded=0;exitX=0.5;exitY=1;exitDx=0;exitDy=0;entryX=0.5;entryY=0;entryDx=0;entryDy=0;" edge="1" parent="1">
          <mxGeometry width="50" height="50" relative="1" as="geometry">
            <mxPoint x="539.5" y="320" as="sourcePoint" />
            <mxPoint x="539.5" y="360" as="targetPoint" />
          </mxGeometry>
        </mxCell>
        <mxCell id="ehPL8AU6kjmEIXc9tZ0f-18" value="" style="shape=flexArrow;endArrow=classic;html=1;rounded=0;exitX=0.5;exitY=1;exitDx=0;exitDy=0;entryX=0.5;entryY=0;entryDx=0;entryDy=0;" edge="1" parent="1">
          <mxGeometry width="50" height="50" relative="1" as="geometry">
            <mxPoint x="539.5" y="420" as="sourcePoint" />
            <mxPoint x="539.5" y="460" as="targetPoint" />
          </mxGeometry>
        </mxCell>
        <mxCell id="ehPL8AU6kjmEIXc9tZ0f-19" value="" style="shape=flexArrow;endArrow=classic;html=1;rounded=0;exitX=0.5;exitY=0;exitDx=0;exitDy=0;entryX=0.5;entryY=1;entryDx=0;entryDy=0;" edge="1" parent="1" source="ehPL8AU6kjmEIXc9tZ0f-7" target="ehPL8AU6kjmEIXc9tZ0f-8">
          <mxGeometry width="50" height="50" relative="1" as="geometry">
            <mxPoint x="280" y="280" as="sourcePoint" />
            <mxPoint x="280" y="320" as="targetPoint" />
          </mxGeometry>
        </mxCell>
        <mxCell id="ehPL8AU6kjmEIXc9tZ0f-20" value="" style="shape=flexArrow;endArrow=classic;html=1;rounded=0;exitX=0.5;exitY=0;exitDx=0;exitDy=0;entryX=0.5;entryY=1;entryDx=0;entryDy=0;" edge="1" parent="1">
          <mxGeometry width="50" height="50" relative="1" as="geometry">
            <mxPoint x="379.5" y="360" as="sourcePoint" />
            <mxPoint x="379.5" y="320" as="targetPoint" />
          </mxGeometry>
        </mxCell>
        <mxCell id="ehPL8AU6kjmEIXc9tZ0f-21" value="" style="shape=flexArrow;endArrow=classic;html=1;rounded=0;exitX=0.5;exitY=0;exitDx=0;exitDy=0;entryX=0.5;entryY=1;entryDx=0;entryDy=0;" edge="1" parent="1">
          <mxGeometry width="50" height="50" relative="1" as="geometry">
            <mxPoint x="379.5" y="460" as="sourcePoint" />
            <mxPoint x="379.5" y="420" as="targetPoint" />
          </mxGeometry>
        </mxCell>
        <mxCell id="ehPL8AU6kjmEIXc9tZ0f-22" value="" style="shape=flexArrow;endArrow=classic;html=1;rounded=0;exitX=1;exitY=0.5;exitDx=0;exitDy=0;entryX=0;entryY=0.5;entryDx=0;entryDy=0;" edge="1" parent="1" source="ehPL8AU6kjmEIXc9tZ0f-4" target="ehPL8AU6kjmEIXc9tZ0f-5">
          <mxGeometry width="50" height="50" relative="1" as="geometry">
            <mxPoint x="300" y="470" as="sourcePoint" />
            <mxPoint x="300" y="430" as="targetPoint" />
          </mxGeometry>
        </mxCell>
        <mxCell id="ehPL8AU6kjmEIXc9tZ0f-23" value="" style="shape=flexArrow;endArrow=classic;html=1;rounded=0;exitX=1;exitY=0.5;exitDx=0;exitDy=0;entryX=0;entryY=0.5;entryDx=0;entryDy=0;" edge="1" parent="1" source="ehPL8AU6kjmEIXc9tZ0f-8" target="ehPL8AU6kjmEIXc9tZ0f-12">
          <mxGeometry width="50" height="50" relative="1" as="geometry">
            <mxPoint x="460" y="190" as="sourcePoint" />
            <mxPoint x="460" y="150" as="targetPoint" />
          </mxGeometry>
        </mxCell>
      </root>
    </mxGraphModel>
  </diagram>
</mxfile>
